#!OML:ASF C:\ViconDB\ViconDB\414\Spring2016\041811\Spring2016.ASF
:FULLY-SPECIFIED
:DEGREES
248
root 6.88568 20.5439 -35.1359 -173.45 -1.70242 -179.028
lowerback 4.18998 0.206944 -4.23518
upperback -1.32112 0.0791369 1.25737
thorax -3.72781 0.151957 3.6761
lowerneck -8.85109 -6.00015 -17.3426
upperneck 16.1811 -10.4839 20.3545
head 8.45723 -4.95239 8.78049
rclavicle -4.7522e-016 2.08724e-015
rhumerus 3.8365 11.4802 -43.077
rradius 118.965
rwrist -15.4072
rhand -36.7281 -26.2591
rfingers 7.12502
rthumb -9.8123 -56.0105
lclavicle -4.7522e-016 2.08724e-015
lhumerus 2.54696 -1.15602 33.8685
lradius 102.638
lwrist 11.7486
lhand -36.6749 17.3154
lfingers 7.12502
lthumb -9.76102 47.0692
rfemur -7.18177 -18.5303 13.517
rtibia 39.0355
rfoot -30.6829 27.5082
rtoes -20.0704
lfemur 3.88121 -1.84096 -14.0257
ltibia 17.8436
lfoot 24.8506 18.7739
ltoes -0.133066
249
root 6.88238 20.8007 -35.4199 -173.404 -1.37569 -179.142
lowerback 3.90464 0.224865 -4.64263
upperback -1.63752 0.0879999 1.37092
thorax -3.89944 0.1764 4.02467
lowerneck -9.11778 -5.95218 -17.4332
upperneck 16.9545 -10.4661 20.0591
head 8.74374 -4.96485 8.71242
rclavicle 1.81158e-015 -5.71506e-015
rhumerus 4.52496 11.4719 -42.1214
rradius 119.828
rwrist -15.22
rhand -37.2913 -27.4459
rfingers 7.12502
rthumb -10.3556 -57.1709
lclavicle 1.81158e-015 -5.71506e-015
lhumerus 2.5446 -0.115144 32.7075
lradius 102.792
lwrist 12.009
lhand -37.1798 17.1274
lfingers 7.12502
lthumb -10.2481 46.8577
rfemur -6.85541 -17.6487 13.5318
rtibia 38.2992
rfoot -31.1847 26.4996
rtoes -20.6806
lfemur 4.32584 -1.98058 -14.1305
ltibia 16.8362
lfoot 26.916 18.3778
ltoes 4.68608
250
root 6.87694 21.0206 -35.6869 -173.392 -1.16945 -179.034
lowerback 3.5751 0.1946 -4.58773
upperback -1.82261 0.0573659 1.33903
thorax -3.90203 0.161246 3.96218
lowerneck -9.25838 -5.86729 -17.2281
upperneck 17.5082 -10.4976 19.9633
head 8.94181 -4.98708 8.65306
rclavicle -7.14382e-016 -4.96962e-016
rhumerus 4.88368 11.2811 -41.7619
rradius 120.594
rwrist -15.3397
rhand -37.4882 -27.4541
rfingers 7.12502
rthumb -10.5456 -57.1695
lclavicle -7.14382e-016 -4.96962e-016
lhumerus 2.72214 0.863999 31.5376
lradius 102.583
lwrist 12.0672
lhand -37.3157 17.1503
lfingers 7.12502
lthumb -10.3792 46.8741
rfemur -6.46051 -16.9781 13.703
rtibia 37.5669
rfoot -31.3775 24.38
rtoes -20.6072
lfemur 3.87958 -1.58167 -13.9489
ltibia 17.3954
lfoot 26.8434 16.1191
ltoes 3.69023
251
root 6.86688 21.2208 -35.9413 -173.491 -1.04382 -178.883
lowerback 3.47315 0.138879 -4.4954
upperback -1.93029 -0.0120391 1.34347
thorax -3.94889 0.126417 3.91948
lowerneck -9.45652 -5.78615 -16.9401
upperneck 18.0473 -10.4832 19.7075
head 9.12371 -4.98354 8.52144
rclavicle 6.17164e-015 -4.96962e-016
rhumerus 5.05255 10.982 -41.6945
rradius 121.07
rwrist -15.0041
rhand -37.2929 -26.8434
rfingers 7.12502
rthumb -10.3572 -56.5683
lclavicle 6.17164e-015 -4.96962e-016
lhumerus 2.86118 1.70447 30.679
lradius 102.147
lwrist 11.9783
lhand -37.5247 16.9993
lfingers 7.12502
lthumb -10.5808 46.713
rfemur -5.97567 -16.4953 13.9249
rtibia 36.8238
rfoot -31.5158 21.9002
rtoes -20.0658
lfemur 3.02864 -1.12648 -13.6806
ltibia 18.6837
lfoot 25.8116 14.0905
ltoes 2.73465
252
root 6.85255 21.4042 -36.191 -173.704 -0.898881 -178.851
lowerback 3.41873 0.107896 -4.48757
upperback -1.87224 -0.0488872 1.33887
thorax -3.85374 0.104639 3.91217
lowerneck -9.70712 -5.76368 -16.9544
upperneck 18.4341 -10.5286 19.752
head 9.3157 -5.00248 8.54748
rclavicle -1.19581e-015 -7.90169e-015
rhumerus 5.13175 10.6856 -41.7707
rradius 121.34
rwrist -14.2053
rhand -37.0637 -26.3022
rfingers 7.12502
rthumb -10.1361 -56.0381
lclavicle -1.19581e-015 -7.90169e-015
lhumerus 2.93496 2.38292 30.0924
lradius 101.628
lwrist 11.9104
lhand -37.5168 16.5888
lfingers 7.12502
lthumb -10.5732 46.3029
rfemur -5.52602 -16.4493 13.9068
rtibia 36.1395
rfoot -31.6093 19.5529
rtoes -19.8257
lfemur 2.19471 -0.56024 -13.5654
ltibia 20.0802
lfoot 24.6359 12.3765
ltoes 2.48428
253
root 6.84255 21.5808 -36.4389 -173.998 -0.930909 -178.622
lowerback 3.49521 0.0429221 -4.37716
upperback -1.76122 -0.126238 1.45784
thorax -3.77331 0.0612887 3.97873
lowerneck -9.92798 -5.74675 -16.9225
upperneck 18.7452 -10.5088 19.6103
head 9.44926 -4.99284 8.4993
rclavicle -5.5287e-016 -2.43511e-015
rhumerus 4.98182 10.5104 -41.9786
rradius 121.376
rwrist -13.0046
rhand -36.7892 -25.7584
rfingers 7.12502
rthumb -9.87132 -55.507
lclavicle -5.5287e-016 -2.43511e-015
lhumerus 2.60066 2.59059 29.6147
lradius 101.198
lwrist 11.9752
lhand -37.7188 16.3823
lfingers 7.12502
lthumb -10.768 46.0863
rfemur -5.16569 -16.4525 14.2489
rtibia 35.5205
rfoot -31.6689 17.9548
rtoes -19.5386
lfemur 1.47377 -0.117788 -13.1975
ltibia 21.126
lfoot 23.592 11.2849
ltoes 2.77462
254
root 6.8251 21.7496 -36.6842 -174.311 -0.956858 -178.452
lowerback 3.58846 -0.0180752 -4.22828
upperback -1.59464 -0.197819 1.50696
thorax -3.64524 0.0171773 3.94996
lowerneck -10.1092 -5.71801 -16.9028
upperneck 18.9556 -10.4966 19.6102
head 9.55257 -4.9817 8.50409
rclavicle 3.37313e-015 -3.13086e-015
rhumerus 4.64222 10.4776 -42.3324
rradius 121.303
rwrist -11.9098
rhand -36.6581 -25.8606
rfingers 7.12502
rthumb -9.74477 -55.6152
lclavicle 3.37313e-015 -3.13086e-015
lhumerus 2.29833 2.85015 29.6176
lradius 100.515
lwrist 11.619
lhand -37.8077 16.3435
lfingers 7.12502
lthumb -10.8538 46.043
rfemur -4.96498 -17.0047 14.448
rtibia 34.9645
rfoot -31.9391 16.6391
rtoes -19.2261
lfemur 1.01551 0.0568823 -12.9764
ltibia 21.6015
lfoot 22.8349 10.6341
ltoes 2.32352
255
root 6.808 21.9114 -36.9263 -174.631 -0.922148 -178.53
lowerback 3.81682 -0.0487039 -4.30694
upperback -1.4354 -0.249007 1.43344
thorax -3.6038 -0.00986404 3.92189
lowerneck -10.3101 -5.70291 -16.7392
upperneck 19.1537 -10.494 19.5018
head 9.64318 -4.96918 8.43729
rclavicle 4.65902e-016 -7.05686e-015
rhumerus 3.96374 10.5705 -43.0002
rradius 121.11
rwrist -10.9445
rhand -36.534 -25.7188
rfingers 7.12502
rthumb -9.62505 -55.4789
lclavicle 4.65902e-016 -7.05686e-015
lhumerus 1.89441 2.81119 29.672
lradius 99.9049
lwrist 11.3985
lhand -37.7195 16.2587
lfingers 7.12502
lthumb -10.7687 45.9627
rfemur -4.89363 -17.7621 14.404
rtibia 34.4121
rfoot -32.4893 15.6234
rtoes -18.8995
lfemur 0.756323 0.163509 -13.0418
ltibia 21.5114
lfoot 22.2124 10.3233
ltoes 1.97381
